<!-- Generated by IcoMoon.io -->
<svg version="1.1" xmlns="http://www.w3.org/2000/svg" width="24" height="24" viewBox="0 0 32 32">
<title>calendar</title>
<path d="M16.012 19.825l0.137-0.038c0.925-0.212 1.563-0.85 1.563-1.575 0-0.8-0.637-1.275-1.688-1.275s-1.713 0.488-1.713 1.238c-0.012 0.8 0.575 1.35 1.7 1.65z"></path>
<path d="M6 31h20v-20h-20v20zM11.738 18.188c0-1.962 1.637-3.188 4.275-3.188 2.613 0 4.262 1.225 4.262 3.188 0 1.163-0.525 1.863-1.875 2.525 1.512 0.6 2.125 1.425 2.125 2.8 0 2.2-1.663 3.488-4.512 3.488-2.863 0-4.525-1.288-4.525-3.488 0-1.375 0.625-2.2 2.125-2.8-1.325-0.65-1.875-1.387-1.875-2.525z"></path>
<path d="M16.012 25.050c1.137 0 1.9-0.587 1.9-1.512 0-0.887-0.675-1.525-2-1.863-1.213 0.337-1.813 0.975-1.813 1.863 0 0.938 0.738 1.512 1.913 1.512z"></path>
<path d="M24 4v-3h-3v3h-10v-3h-3v3h-2v4h20v-4z"></path>
</svg>
