<!-- Generated by IcoMoon.io -->
<svg fill="#fff" version="1.1" xmlns="http://www.w3.org/2000/svg" width="24" height="24" viewBox="0 0 32 32">
<title>globe</title>
<path d="M16 0c-8.838 0-16 7.162-16 16s7.162 16 16 16 16-7.163 16-16-7.163-16-16-16zM16 29c-7.162 0-13-5.837-13-13 0-1.575 0.288-3.088 0.8-4.488l1.038 3.637 2.213 3.275h2.363v1.587l1.675 2v3.625l1.588 1.762 4.475-7.175v-3.038l-6.512-1.775h-0.887l-0.713-1.063 1.488-1.875h2.45l1.425-4.675-3.037-2.712h-2.425c2.037-1.313 4.463-2.087 7.063-2.087 1.8 0 3.525 0.375 5.087 1.038v1.675l-1.863 0.825 1.225 2.737 1.65-0.738h4.55c0.65 0.925 1.175 1.925 1.563 3h-5.712l-2.675 2.975 0.475 3.363h3l0.863 6.163h2.038c-2.375 3.025-6.063 4.962-10.2 4.962z"></path>
</svg>
