<!-- Generated by IcoMoon.io -->
<svg fill="#ffffff" version="1.1" xmlns="http://www.w3.org/2000/svg" width="24" height="24" viewBox="0 0 32 32">
<title>replay</title>
<path d="M16 26c-0.001 0-0.002 0-0.003 0-5.523 0-10-4.477-10-10s4.477-10 10-10c3.359 0 6.332 1.656 8.145 4.197l0.014 0.037-3.489 0.49v2.401l9.334-0.015v-9.314h-2.389l-0.516 3.671c-2.585-3.336-6.592-5.462-11.095-5.462-7.732 0-14 6.268-14 14s6.268 14 14 14c5.423 0 10.126-3.084 12.451-7.593l-3.533-1.89c-1.687 3.276-5.046 5.477-8.919 5.477z"></path>
</svg>
