<!-- Generated by IcoMoon.io -->
<svg  fill="#50bed7" version="1.1" xmlns="http://www.w3.org/2000/svg" width="24" height="24" viewBox="0 0 32 32">
<title>user-account</title>
<path d="M16 13.5c2.738 0 4.587-2.1 4.587-5.25s-1.863-5.25-4.588-5.25c-2.737 0-4.6 2.1-4.6 5.25 0.012 3.15 1.863 5.25 4.6 5.25z"></path>
<path d="M26 20.125c-0.038-2.225-1.325-3.75-3.225-3.875v0l-3.438-0.238c0 0 0 0 0 0l-3.338 3.325-3.338-3.338c0 0 0 0 0 0v0l-3.438 0.237c-1.9 0.137-3.175 1.663-3.225 3.887 0 0 0 0 0 0 0 0.887 0 5.575 0 9.875h20c0-4.3 0-8.988 0-9.875 0 0.012 0 0 0 0z"></path>
</svg>
